<svg id="cart" xmlns="http://www.w3.org/2000/svg" width="36" height="31.641" viewBox="0 0 36 31.641">
  <path id="Path_2" data-name="Path 2" d="M11.6,21.095H30.727a1.055,1.055,0,0,0,1.014-.765L35.96,5.563a1.055,1.055,0,0,0-1.014-1.344H9.166L8.413.826A1.055,1.055,0,0,0,7.383,0H1.055a1.055,1.055,0,1,0,0,2.109H6.537l3.808,17.136A3.164,3.164,0,0,0,11.6,25.313H30.727a1.055,1.055,0,1,0,0-2.109H11.6a1.055,1.055,0,0,1,0-2.109ZM33.548,6.328,29.931,18.985H12.448L9.635,6.328Zm0,0" transform="translate(0 0)" fill="#ff8c00"/>
  <path id="Path_3" data-name="Path 3" d="M150,363.164A3.164,3.164,0,1,0,153.164,360,3.168,3.168,0,0,0,150,363.164Zm3.164-1.055a1.055,1.055,0,1,1-1.055,1.055A1.056,1.056,0,0,1,153.164,362.109Zm0,0" transform="translate(-139.453 -334.687)" fill="#ff8c00"/>
  <path id="Path_4" data-name="Path 4" d="M362,363.164A3.164,3.164,0,1,0,365.164,360,3.168,3.168,0,0,0,362,363.164Zm3.164-1.055a1.055,1.055,0,1,1-1.055,1.055A1.056,1.056,0,0,1,365.164,362.109Zm0,0" transform="translate(-336.546 -334.687)" fill="#ff8c00"/>
</svg>
