<svg xmlns="http://www.w3.org/2000/svg" width="127.265" height="129.303" viewBox="0 0 127.265 129.303">
  <g id="cookie" transform="translate(-4.052)">
    <path id="Path_133" data-name="Path 133" d="M164.7,4.463a46.527,46.527,0,0,1,13.842-.325L177.02,7.8a6.761,6.761,0,0,0,6.263,9.35,6.691,6.691,0,0,0,1.294-.126l2.269-.448a6.756,6.756,0,0,0,5.146-4.623L193.068,8.5a46.3,46.3,0,0,1,25.827,38.644,1.885,1.885,0,0,0,1.88,1.769q.058,0,.118,0a1.885,1.885,0,0,0,1.765-2A50.081,50.081,0,0,0,164.048.749a1.885,1.885,0,1,0,.648,3.714Zm23.7,6.367a2.989,2.989,0,0,1-2.276,2.045l-2.269.448A2.992,2.992,0,0,1,180.5,9.243l1.847-4.457A45.966,45.966,0,0,1,189.6,6.968Z" transform="translate(-118.607)" fill="#ff8c00"/>
    <path id="Path_134" data-name="Path 134" d="M27.564,96.213A46.289,46.289,0,0,1,38.606,14.679a1.885,1.885,0,1,0-1.262-3.553A50.06,50.06,0,0,0,25.4,99.3a1.885,1.885,0,0,0,2.165-3.087Z" transform="translate(0 -8.247)" fill="#ff8c00"/>
    <path id="Path_135" data-name="Path 135" d="M204.872,140.67a3.758,3.758,0,0,0-3.179-1.8,3.856,3.856,0,0,0-3.291,1.779,7.983,7.983,0,0,1-12.628,1.049,4.6,4.6,0,0,0-4.981-1.225,8.826,8.826,0,0,1-11.8-8.307v-.521a4.78,4.78,0,0,0-3.167-4.514,6.032,6.032,0,0,1-4.01-5.674l0-.815a3.7,3.7,0,0,0-4.026-3.693,50.083,50.083,0,0,0-38.989,24.873q-.04.069-.074.141l-3.429,7.3c-.022.048-.043.1-.061.146a51.233,51.233,0,0,0-.978,32.23c4.044,14.021,18.682,28.8,32.631,32.951a53.633,53.633,0,0,0,15.291,2.256,50.078,50.078,0,0,0,13.711-1.894,1.885,1.885,0,1,0-1.032-3.627,48.09,48.09,0,0,1-26.9-.349c-12.641-3.76-26.417-17.673-30.083-30.382a47.5,47.5,0,0,1,.863-29.8l3.361-7.152a46.308,46.308,0,0,1,35.939-22.927v.742a9.81,9.81,0,0,0,6.521,9.232,1,1,0,0,1,.655.954v.523a12.6,12.6,0,0,0,16.839,11.859.835.835,0,0,1,.917.211,11.754,11.754,0,0,0,18.589-1.542c.041-.064.089-.049.087-.046a46.294,46.294,0,0,1-19.464,65.9,1.885,1.885,0,1,0,1.633,3.4,50.073,50.073,0,0,0,21.046-71.271Z" transform="translate(-80.914 -87.538)" fill="#ff8c00"/>
    <path id="Path_136" data-name="Path 136" d="M116.943,75.044a4.91,4.91,0,0,0,8.382-3.472v-6.65a4.916,4.916,0,0,0-4.91-4.91h-3.709a4.916,4.916,0,0,0-4.91,4.91v2.941a4.878,4.878,0,0,0,1.438,3.472Zm-1.377-10.123a1.141,1.141,0,0,1,1.14-1.14h3.709a1.141,1.141,0,0,1,1.14,1.14v6.65a1.14,1.14,0,0,1-1.945.806L115.9,68.668a1.133,1.133,0,0,1-.334-.806Z" transform="translate(-80.659 -44.926)" fill="#ff8c00"/>
    <path id="Path_137" data-name="Path 137" d="M58.534,170a5.046,5.046,0,0,0,.968-5.918l-.545-1.07a5.042,5.042,0,0,0-5.743-2.615l-1.721.43a5.093,5.093,0,0,0-3.433,2.931l-.459,1.079a5.069,5.069,0,0,0,1.562,5.991l1.272.984a5.085,5.085,0,0,0,6.645-.389Zm-2.639-2.693-1.453,1.424a1.3,1.3,0,0,1-1.7.1l-1.272-.985a1.3,1.3,0,0,1-.4-1.532l.459-1.079a1.3,1.3,0,0,1,.878-.749l1.721-.43a1.319,1.319,0,0,1,.318-.039,1.289,1.289,0,0,1,1.15.708l.545,1.07a1.29,1.29,0,0,1-.248,1.513Z" transform="translate(-32.299 -119.961)" fill="#ff8c00"/>
    <path id="Path_138" data-name="Path 138" d="M224.837,265.522a5.715,5.715,0,0,0,4.175,7.841l3.639.7a5.675,5.675,0,0,0,1.08.1,5.713,5.713,0,0,0,5.68-5.026l.362-2.989a5.739,5.739,0,0,0-3.451-5.953l-2.572-1.086a5.724,5.724,0,0,0-7.484,3.034Zm3.472,1.472,1.429-3.37a1.945,1.945,0,0,1,2.546-1.032l2.572,1.086a1.952,1.952,0,0,1,1.174,2.025l-.362,2.989a1.944,1.944,0,0,1-2.3,1.675l-3.639-.7a1.945,1.945,0,0,1-1.42-2.668Z" transform="translate(-164.943 -193.644)" fill="#ff8c00"/>
    <path id="Path_139" data-name="Path 139" d="M357.413,359.71l3.183-3.784a5.748,5.748,0,0,0-.254-7.7l-2.721-2.832a5.758,5.758,0,0,0-8.224-.082l-3.148,3.147a5.77,5.77,0,0,0-.481,7.6l2.685,3.468a5.733,5.733,0,0,0,4.437,2.232h.119A5.731,5.731,0,0,0,357.413,359.71Zm-4.447-1.72a1.979,1.979,0,0,1-1.532-.77l-2.685-3.468a1.992,1.992,0,0,1,.166-2.623l3.148-3.147a1.972,1.972,0,0,1,1.4-.582h.021a1.972,1.972,0,0,1,1.413.61l2.721,2.832a1.984,1.984,0,0,1,.088,2.657l-3.183,3.783A2,2,0,0,1,352.966,357.99Z" transform="translate(-254.916 -257.248)" fill="#ff8c00"/>
    <path id="Path_140" data-name="Path 140" d="M347.2,275.812a4.1,4.1,0,0,0,3.505-6.233l-2.09-3.439a4.088,4.088,0,0,0-4.475-1.855l-2.413.587a4.087,4.087,0,0,0-3.091,4.566l.407,2.852a4.123,4.123,0,0,0,4.061,3.522Zm-4.424-4.055-.408-2.852a.33.33,0,0,1,.25-.369l2.413-.587h0a.33.33,0,0,1,.361.15l2.09,3.439a.331.331,0,0,1-.283.5h-4.1A.333.333,0,0,1,342.775,271.757Z" transform="translate(-250.444 -197.762)" fill="#ff8c00"/>
    <path id="Path_141" data-name="Path 141" d="M426.353,299.744a4.557,4.557,0,0,0-.128-3.528l-1.366-2.969a4.589,4.589,0,0,0-6.3-2.148l-1.793.939a4.589,4.589,0,0,0-1.9,6.257l1.507,2.773a4.61,4.61,0,0,0,4.048,2.394,4.542,4.542,0,0,0,1.867-.4l1.652-.743A4.559,4.559,0,0,0,426.353,299.744Zm-3.531-1.323a.815.815,0,0,1-.431.46l-1.652.743a.822.822,0,0,1-1.055-.356l-1.507-2.773a.819.819,0,0,1,.339-1.116l1.793-.939a.819.819,0,0,1,1.124.383l1.366,2.969A.815.815,0,0,1,422.822,298.421Z" transform="translate(-307.124 -217.533)" fill="#ff8c00"/>
    <path id="Path_142" data-name="Path 142" d="M234.149,376.271l2.685,1.173a6.028,6.028,0,0,0,7.788-2.793l1.283-2.525a6.029,6.029,0,0,0-2.782-8.174l-2.638-1.257a6,6,0,0,0-7.964,2.7l-1.33,2.609a6.028,6.028,0,0,0,2.958,8.262Zm.4-6.55,1.33-2.609a2.245,2.245,0,0,1,2-1.236,2.273,2.273,0,0,1,.979.223l2.638,1.257a2.258,2.258,0,0,1,1.042,3.061l-1.283,2.525a2.26,2.26,0,0,1-2.917,1.046l-2.685-1.173a2.259,2.259,0,0,1-1.108-3.094Z" transform="translate(-169.551 -271.075)" fill="#ff8c00"/>
    <path id="Path_143" data-name="Path 143" d="M236.824,180.219h2.621a4.333,4.333,0,0,0,4.249-3.4l1.094-4.845a4.356,4.356,0,0,0-5.865-5.005l-3.715,1.483a4.335,4.335,0,0,0-2.741,4.046v3.362A4.361,4.361,0,0,0,236.824,180.219Zm-.585-7.718a.583.583,0,0,1,.369-.544l3.715-1.483a.6.6,0,0,1,.225-.046.577.577,0,0,1,.373.144.564.564,0,0,1,.191.574l-1.094,4.845a.583.583,0,0,1-.571.457h-2.621a.586.586,0,0,1-.585-.585Z" transform="translate(-170.997 -124.765)" fill="#ff8c00"/>
    <path id="Path_144" data-name="Path 144" d="M206.25,87.911h-1.955a1.885,1.885,0,0,0,0,3.771h1.955a1.885,1.885,0,1,0,0-3.771Z" transform="translate(-148.494 -65.812)" fill="#ff8c00"/>
    <path id="Path_145" data-name="Path 145" d="M288.658,75.346a1.885,1.885,0,0,0,0,3.771h2.406a1.885,1.885,0,1,0,0-3.771Z" transform="translate(-211.651 -56.406)" fill="#ff8c00"/>
    <path id="Path_146" data-name="Path 146" d="M114.006,147.326H117a1.885,1.885,0,1,0,0-3.771h-2.993a1.885,1.885,0,1,0,0,3.771Z" transform="translate(-80.903 -107.468)" fill="#ff8c00"/>
    <path id="Path_147" data-name="Path 147" d="M60.1,244.073a1.885,1.885,0,1,0,0,3.771h1.774a1.885,1.885,0,1,0,0-3.771Z" transform="translate(-40.545 -182.718)" fill="#ff8c00"/>
    <path id="Path_148" data-name="Path 148" d="M69.142,116.811a1.885,1.885,0,0,0,0-3.771H67.156a1.885,1.885,0,1,0,0,3.771Z" transform="translate(-45.83 -84.624)" fill="#ff8c00"/>
    <path id="Path_149" data-name="Path 149" d="M188.093,238.778a1.885,1.885,0,0,0-1.885-1.885h-2.256a1.885,1.885,0,1,0,0,3.771h2.256A1.885,1.885,0,0,0,188.093,238.778Z" transform="translate(-133.265 -177.343)" fill="#ff8c00"/>
    <path id="Path_150" data-name="Path 150" d="M192.926,347.4h1.955a1.885,1.885,0,1,0,0-3.771h-1.955a1.885,1.885,0,1,0,0,3.771Z" transform="translate(-139.984 -257.249)" fill="#ff8c00"/>
    <path id="Path_151" data-name="Path 151" d="M296.5,335.2a1.885,1.885,0,1,0,0-3.771h-3.057a1.885,1.885,0,1,0,0,3.771Z" transform="translate(-215.234 -248.115)" fill="#ff8c00"/>
    <path id="Path_152" data-name="Path 152" d="M302.419,451.873h1.805a1.885,1.885,0,1,0,0-3.771h-1.805a1.885,1.885,0,0,0,0,3.771Z" transform="translate(-221.953 -335.459)" fill="#ff8c00"/>
    <path id="Path_153" data-name="Path 153" d="M435.1,367.328h-1.858a1.885,1.885,0,0,0,0,3.771H435.1a1.885,1.885,0,0,0,0-3.771Z" transform="translate(-319.887 -274.99)" fill="#ff8c00"/>
  </g>
</svg>
