<svg xmlns="http://www.w3.org/2000/svg" width="225" height="88" viewBox="0 0 225 88">
  <g id="inovashop-logo-light-lato" transform="translate(-579.473 -212.335)">
    <text id="INOVA" transform="translate(579.473 284.335)" fill="#fff" font-size="73" font-family="Lato-Regular, Lato"><tspan x="0" y="0" xml:space="preserve">IN   VA</tspan></text>
    <g id="solid" transform="translate(653.679 231.254)">
      <path id="Path_4" data-name="Path 4" d="M80.724,87.3,77.88,84.46a24.092,24.092,0,0,0-.009-32.644l2.851-2.851a28.131,28.131,0,0,1,0,38.339ZM79.3,47.544l-2.852,2.851a24.067,24.067,0,0,0-32.634,0l-2.851-2.851a28.127,28.127,0,0,1,38.338,0ZM39.543,48.964l2.851,2.851a24.092,24.092,0,0,0-.009,32.644L39.541,87.3a28.131,28.131,0,0,1,0-38.339Z" transform="translate(-31.998 -40)" fill="#ff8c00"/>
      <path id="Path_5" data-name="Path 5" d="M228.019,232A4.019,4.019,0,1,1,224,236.019,4.019,4.019,0,0,1,228.019,232Z" transform="translate(-199.885 -207.886)" fill="#ff8c00"/>
      <path id="Path_6" data-name="Path 6" d="M166.143,241.157H136v-4.019h30.143ZM147,231.8l-2.009-6.029a1,1,0,0,0-.58-.616,14.568,14.568,0,0,1-7.209-6.273,9.139,9.139,0,0,1-1.2-4.526v-3.1L137.626,208h2.393v1.389l-1.454.727a1,1,0,0,0-.525,1.142l1.005,4.019a1,1,0,0,0,.73.729,7.993,7.993,0,0,1,5.217,4.188l.157.314a1,1,0,0,0,1.1.536l.1-.02a23.972,23.972,0,0,1,9.45,0l.1.02a1,1,0,0,0,1.1-.536l.157-.314a7.993,7.993,0,0,1,5.217-4.188,1,1,0,0,0,.73-.729l1.005-4.019a1,1,0,0,0-.525-1.142l-1.454-.727V208h2.393l1.626,3.252v3.1a9.138,9.138,0,0,1-1.2,4.527,14.567,14.567,0,0,1-7.209,6.273,1,1,0,0,0-.58.616l-2.01,6.029a1.006,1.006,0,0,0-.022.562l.693,2.771h-9.484l.693-2.771A1.006,1.006,0,0,0,147,231.8Z" transform="translate(-122.937 -186.9)" fill="#ff8c00"/>
    </g>
  </g>
</svg>
