<svg xmlns="http://www.w3.org/2000/svg" width="130.133" height="118.961" viewBox="0 0 130.133 118.961">
  <g id="warning" transform="translate(0 -20.882)">
    <g id="Group_162" data-name="Group 162" transform="translate(0 20.882)">
      <path id="Path_154" data-name="Path 154" d="M224.913,333.382a6.688,6.688,0,0,0,0,13.375,6.69,6.69,0,0,0,0-13.375Z" transform="translate(-159.848 -249.786)" fill="#ff8c00"/>
      <path id="Path_155" data-name="Path 155" d="M126.966,128.18a22.837,22.837,0,0,0,.054-23.113L85.128,32.519a23.081,23.081,0,0,0-40.073-.027L3.109,105.12a23.169,23.169,0,0,0,20.063,34.723h83.677A23.037,23.037,0,0,0,126.966,128.18Zm-9.1-5.243a12.641,12.641,0,0,1-11.048,6.393H23.146a12.469,12.469,0,0,1-10.914-6.26,12.658,12.658,0,0,1-.027-12.76l41.945-72.6a12.6,12.6,0,0,1,21.882.027l41.919,72.6A12.49,12.49,0,0,1,117.871,122.936Z" transform="translate(0 -20.882)" fill="#ff8c00"/>
      <path id="Path_156" data-name="Path 156" d="M222.888,157.365a7.273,7.273,0,0,0-5.163,7.3c.161,2.113.294,4.253.455,6.367.455,8.052.91,15.944,1.364,24a4.9,4.9,0,0,0,5,4.708,5,5,0,0,0,5-4.869c0-1.659,0-3.183.161-4.869.294-5.163.615-10.326.91-15.489.161-3.344.455-6.688.615-10.032a8.261,8.261,0,0,0-.615-3.344A6.7,6.7,0,0,0,222.888,157.365Z" transform="translate(-159.482 -120.716)" fill="#ff8c00"/>
    </g>
  </g>
</svg>
